<svg xmlns="http://www.w3.org/2000/svg" width="288" height="288"><svg xmlns="http://www.w3.org/2000/svg" width="288" height="288" fill-rule="evenodd" stroke-linejoin="round" stroke-miterlimit="2" clip-rule="evenodd" viewBox="0 0 64 64"><path fill="none" d="M0 0h64v64H0z"/><circle cx="660" cy="192" r="16" fill="#9c9c9c" class="color738b95 svgShape" transform="translate(-640 -160)"/><circle cx="660" cy="192" r="16" fill="#9c9c9c" class="color738b95 svgShape" transform="matrix(.4375 0 0 .9375 -243.75 -148)"/><circle cx="660" cy="192" r="16" fill="#9c9c9c" class="color738b95 svgShape" transform="matrix(.1875 0 0 .875 -66.75 -136)"/><path fill="#617881" d="M58.59 43.87C58.129 45.22 57.584 46 57 46c-1.656 0-3-6.273-3-14s1.344-14 3-14c.139 0 .276.044.41.13C56.563 20.606 56 24.998 56 30c0 7.079 1.128 12.937 2.59 13.87zM9.733 19.733A15.926 15.926 0 0 0 6 30c0 8.831 7.169 16 16 16 3.907 0 7.488-1.403 10.267-3.733A15.966 15.966 0 0 1 20 48c-8.831 0-16-7.169-16-16 0-4.924 2.229-9.331 5.733-12.267zm33.349-2.162C41.223 20.269 40 24.831 40 30c0 8.279 3.137 15 7 15 .665 0 1.308-.199 1.918-.571C47.8 46.052 46.451 47 45 47c-3.863 0-7-6.721-7-15 0-6.854 2.15-12.64 5.082-14.429z" class="color617881 svgShape"/></svg></svg>